<?xml version="1.0" encoding="utf-8"?>
<!-- Generator: Adobe Illustrator 27.5.0, SVG Export Plug-In . SVG Version: 6.00 Build 0)  -->
<svg version="1.1" id="Layer_1" xmlns="http://www.w3.org/2000/svg" xmlns:xlink="http://www.w3.org/1999/xlink" x="0px" y="0px"
	 viewBox="0 0 504 288" style="enable-background:new 0 0 504 288;" xml:space="preserve">
<g>
	<rect style="fill:#FFFFFF;" width="504" height="288"/>
	<g>
		<g>
			<path d="M328.947,203.767h-38.474v-2h38.474c2.612,0,5.146-0.512,7.529-1.52c2.303-0.975,4.372-2.369,6.149-4.146
				c1.776-1.775,3.171-3.844,4.146-6.148c1.008-2.383,1.52-4.916,1.52-7.529v-19.212h2v19.212c0,2.883-0.564,5.678-1.678,8.309
				c-1.075,2.543-2.614,4.825-4.573,6.783c-1.96,1.96-4.243,3.499-6.784,4.574C334.624,203.202,331.828,203.767,328.947,203.767z"/>
		</g>
		<g>
			<path d="M350.291,124.789h-2v-19.212c0-2.613-0.512-5.146-1.52-7.529c-0.975-2.303-2.369-4.372-4.146-6.148
				c-1.777-1.777-3.847-3.172-6.149-4.146c-2.384-1.008-4.917-1.52-7.529-1.52h-38.474v-2h38.474c2.881,0,5.677,0.564,8.309,1.678
				c2.541,1.075,4.824,2.614,6.784,4.574c1.96,1.96,3.498,4.242,4.573,6.783c1.113,2.631,1.678,5.426,1.678,8.309V124.789z"/>
		</g>
		<g>
			<path d="M155.709,124.789h-2v-19.212c0-2.88,0.564-5.676,1.678-8.309c1.075-2.541,2.613-4.823,4.573-6.783
				c1.96-1.96,4.243-3.499,6.784-4.574c2.632-1.113,5.428-1.678,8.309-1.678h38.474v2h-38.474c-2.612,0-5.145,0.512-7.529,1.52
				c-2.303,0.975-4.372,2.369-6.149,4.146c-1.776,1.776-3.171,3.846-4.146,6.148c-1.008,2.385-1.52,4.918-1.52,7.529V124.789z"/>
		</g>
		<g>
			<path d="M213.526,203.767h-38.474c-2.881,0-5.677-0.564-8.309-1.678c-2.541-1.075-4.824-2.614-6.784-4.574
				c-1.959-1.958-3.498-4.24-4.573-6.783c-1.113-2.633-1.678-5.429-1.678-8.309v-19.212h2v19.212c0,2.611,0.512,5.145,1.52,7.529
				c0.975,2.305,2.369,4.373,4.146,6.148c1.777,1.777,3.847,3.172,6.149,4.146c2.384,1.008,4.917,1.52,7.529,1.52h38.474V203.767z"
				/>
		</g>
	</g>
	<g>
		<polygon points="39.168,142.825 30.469,142.825 30.469,130.109 21.744,146.208 30.451,146.208 30.451,158.921 		"/>
		<g>
			<path d="M41.611,156.629H38.17l-0.64,1.58h-2.348l3.592-8.138h2.268l3.604,8.138h-2.395L41.611,156.629z M40.937,154.932
				l-1.047-2.605l-1.046,2.605H40.937z"/>
		</g>
	</g>
	<g>
		<path d="M33.956,259.844h-5.364v-2.634c-0.312-0.107-0.616-0.233-0.91-0.376l-1.862,1.861l-3.792-3.792l1.861-1.862
			c-0.143-0.294-0.269-0.599-0.376-0.91h-2.634v-5.364h2.634c0.107-0.312,0.233-0.616,0.376-0.91l-1.861-1.862l3.792-3.792
			l1.862,1.861c0.294-0.143,0.599-0.269,0.91-0.376v-2.634h5.364v2.634c0.312,0.107,0.616,0.233,0.91,0.376l1.862-1.861l3.792,3.792
			l-1.861,1.862c0.143,0.294,0.269,0.599,0.376,0.91h2.635v5.364h-2.635c-0.107,0.312-0.233,0.616-0.376,0.91l1.861,1.862
			l-3.792,3.792l-1.862-1.861c-0.294,0.142-0.599,0.268-0.91,0.376V259.844z M29.592,258.844h3.364v-2.373l0.358-0.105
			c0.491-0.145,0.965-0.341,1.408-0.582l0.328-0.179l1.678,1.677l2.378-2.378l-1.677-1.678l0.179-0.328
			c0.241-0.443,0.438-0.917,0.582-1.408l0.105-0.358h2.374v-3.364h-2.374l-0.105-0.358c-0.145-0.491-0.341-0.965-0.582-1.408
			l-0.179-0.328l1.677-1.678l-2.378-2.378l-1.678,1.677l-0.328-0.179c-0.443-0.241-0.917-0.438-1.408-0.582l-0.358-0.105v-2.373
			h-3.364v2.373l-0.358,0.105c-0.491,0.145-0.965,0.341-1.408,0.582l-0.328,0.179l-1.678-1.677l-2.378,2.378l1.677,1.678L24.939,246
			c-0.241,0.443-0.438,0.917-0.582,1.408l-0.105,0.358h-2.373v3.364h2.373l0.105,0.358c0.145,0.491,0.341,0.965,0.582,1.408
			l0.179,0.328l-1.677,1.678l2.378,2.378l1.678-1.677l0.328,0.179c0.443,0.241,0.917,0.438,1.408,0.582l0.358,0.105V258.844z
			 M31.274,253.824c-2.413,0-4.376-1.963-4.376-4.375c0-2.413,1.963-4.376,4.376-4.376c2.412,0,4.375,1.963,4.375,4.376
			C35.649,251.861,33.686,253.824,31.274,253.824z M31.274,246.073c-1.861,0-3.376,1.515-3.376,3.376s1.515,3.375,3.376,3.375
			c1.861,0,3.375-1.514,3.375-3.375S33.136,246.073,31.274,246.073z"/>
	</g>
	<g>
		<g>
			<path d="M449.917,137.37v-1.861c0-0.378-0.306-0.684-0.684-0.684h-10.55c-0.378,0-0.684,0.306-0.684,0.684v1.861
				c0,0.378-0.306,0.684-0.684,0.684h-4.388c-0.378,0-0.684,0.306-0.684,0.684v11.333c0,0.378,0.306,0.684,0.684,0.684h22.064
				c0.378,0,0.684-0.306,0.684-0.684v-11.333c0-0.378-0.306-0.684-0.684-0.684h-4.389
				C450.224,138.055,449.917,137.748,449.917,137.37z"/>
			<path style="fill:#FFFFFF;" d="M448.335,144c0,2.417-1.96,4.377-4.377,4.377c-2.418,0-4.377-1.96-4.377-4.377
				s1.96-4.377,4.377-4.377C446.376,139.623,448.335,141.583,448.335,144z"/>
		</g>
		<g>
			<path d="M443.958,163.903c-10.975,0-19.903-8.929-19.903-19.903s8.929-19.903,19.903-19.903c10.975,0,19.903,8.929,19.903,19.903
				S454.932,163.903,443.958,163.903z M443.958,125.097c-10.423,0-18.903,8.48-18.903,18.903c0,10.423,8.48,18.903,18.903,18.903
				c10.423,0,18.903-8.48,18.903-18.903C462.861,133.577,454.381,125.097,443.958,125.097z"/>
		</g>
	</g>
	<g>
		<g>
			<path d="M447.941,216.67v-1.245c0-0.253-0.205-0.458-0.458-0.458h-7.054c-0.253,0-0.458,0.205-0.458,0.458v1.245
				c0,0.253-0.205,0.458-0.458,0.458h-2.934c-0.253,0-0.458,0.205-0.458,0.458v7.577c0,0.253,0.205,0.458,0.458,0.458h14.752
				c0.253,0,0.458-0.205,0.458-0.458v-7.577c0-0.253-0.205-0.458-0.458-0.458h-2.934
				C448.146,217.127,447.941,216.923,447.941,216.67z"/>
			<circle style="fill:#FFFFFF;" cx="443.957" cy="221.102" r="2.927"/>
		</g>
		<g>
			<g>
				<path d="M443.953,234.576c-7.427,0-13.47-6.043-13.47-13.47c0-1.933,0.399-3.797,1.188-5.542l0.912,0.412
					c-0.729,1.614-1.1,3.341-1.1,5.13c0,6.876,5.594,12.47,12.47,12.47c2.944,0,5.803-1.045,8.048-2.941l0.645,0.764
					C450.221,233.447,447.134,234.576,443.953,234.576z"/>
			</g>
			<g>
				<polygon points="433.963,217.721 434.043,212.736 429.686,215.159 				"/>
			</g>
		</g>
		<g>
			<g>
				<path d="M456.246,226.638l-0.912-0.412c0.729-1.613,1.099-3.336,1.099-5.119c0-6.882-5.599-12.48-12.479-12.48
					c-2.938,0-5.792,1.045-8.038,2.942l-0.645-0.764c2.426-2.05,5.509-3.179,8.683-3.179c7.433,0,13.479,6.047,13.479,13.48
					C457.432,223.033,457.033,224.893,456.246,226.638z"/>
			</g>
			<g>
				<polygon points="453.953,224.481 453.873,229.466 458.231,227.044 				"/>
			</g>
		</g>
	</g>
	<g>
		<g>
			<path d="M443.958,85.733c-10.975,0-19.903-8.929-19.903-19.903s8.929-19.903,19.903-19.903c10.975,0,19.903,8.929,19.903,19.903
				S454.932,85.733,443.958,85.733z M443.958,46.927c-10.423,0-18.903,8.48-18.903,18.903c0,10.423,8.48,18.903,18.903,18.903
				c10.423,0,18.903-8.48,18.903-18.903C462.861,55.407,454.381,46.927,443.958,46.927z"/>
		</g>
		<circle style="fill:#EA0000;" cx="443.958" cy="65.83" r="7.871"/>
	</g>
	<g>
		<g>
			<path style="fill:#0A0909;" d="M50.401,42.905H23.226V29.515h27.176V42.905z M24.226,41.905h25.176V30.515H24.226V41.905z"/>
		</g>
		<g>
			<path style="fill:#0A0909;" d="M52.969,40.324h-3.567v-8.486h3.567V40.324z M50.401,39.324h1.567v-6.486h-1.567V39.324z"/>
		</g>
		<rect x="26.262" y="32.338" style="fill:#189A00;" width="15.365" height="7.873"/>
	</g>
	<g>
		<g>
			<g>
				<rect x="251.5" y="133.795" style="fill:#0A0909;" width="1" height="20.41"/>
			</g>
			<g>
				<rect x="241.795" y="143.5" style="fill:#0A0909;" width="20.41" height="1"/>
			</g>
		</g>
	</g>
</g>
</svg>
