<?xml version="1.0" standalone="no"?>
<!DOCTYPE svg PUBLIC "-//W3C//DTD SVG 20010904//EN"
 "http://www.w3.org/TR/2001/REC-SVG-20010904/DTD/svg10.dtd">
<svg version="1.0" xmlns="http://www.w3.org/2000/svg"
 width="1800.000000pt" height="1689.000000pt" viewBox="0 0 1800.000000 1689.000000"
 preserveAspectRatio="xMidYMid meet">
<g transform="translate(0.000000,1689.000000) scale(0.100000,-0.100000)"
fill="#ffffff" stroke="none">
<path d="M30 8445 c0 -7500 2 -8445 15 -8445 13 0 15 945 15 8445 0 7500 -2
8445 -15 8445 -13 0 -15 -945 -15 -8445z"/>
<path d="M17900 9362 c0 -4141 3 -7941 7 -8445 6 -880 7 -917 25 -917 17 0 18
260 18 8445 l0 8445 -25 0 -25 0 0 -7528z"/>
<path d="M13520 11560 l-635 -5 -55 -32 c-48 -28 -170 -149 -170 -169 0 -4
-11 -19 -25 -33 -60 -64 -85 -97 -85 -112 0 -9 -11 -24 -24 -32 -25 -17 -86
-100 -86 -118 0 -5 -11 -14 -24 -20 -14 -7 -27 -22 -30 -34 -3 -12 -23 -40
-44 -61 -40 -41 -57 -70 -53 -93 3 -14 -46 -60 -64 -61 -5 0 -28 -25 -49 -55
-21 -30 -50 -64 -63 -76 -12 -13 -23 -29 -23 -36 0 -8 -7 -16 -15 -19 -8 -4
-15 -14 -15 -25 0 -10 -6 -22 -14 -26 -26 -15 -113 -128 -120 -155 -3 -16 -10
-28 -15 -28 -12 0 -73 -60 -94 -92 -9 -15 -17 -36 -17 -46 0 -25 -11 -34 -26
-22 -9 8 -17 2 -33 -23 -12 -19 -21 -39 -21 -45 0 -6 -9 -13 -19 -17 -11 -3
-27 -22 -37 -43 -9 -20 -28 -47 -41 -59 -12 -12 -23 -32 -23 -43 0 -13 -8 -24
-20 -27 -11 -3 -30 -22 -42 -42 -12 -20 -25 -38 -28 -41 -18 -14 -123 -145
-145 -180 -14 -22 -32 -40 -40 -40 -17 0 -20 -16 -5 -25 17 -10 11 -25 -12
-35 -13 -5 -30 -15 -38 -22 -25 -22 -85 -100 -111 -145 -13 -23 -31 -44 -41
-46 -11 -3 -15 -11 -11 -26 4 -16 1 -21 -16 -21 -14 0 -23 -8 -27 -25 -3 -14
-14 -31 -24 -38 -23 -16 -115 -128 -123 -149 -3 -10 -11 -18 -17 -18 -7 0 -9
-8 -5 -20 5 -14 2 -20 -9 -20 -9 0 -16 -7 -16 -15 0 -9 -10 -20 -22 -26 -24
-11 -93 -96 -93 -114 0 -5 -11 -21 -23 -35 -65 -72 -101 -118 -116 -148 -9
-18 -24 -36 -32 -39 -7 -3 -14 -10 -14 -15 0 -6 -12 -22 -27 -37 -39 -38 -123
-148 -123 -160 0 -6 -9 -15 -20 -21 -11 -6 -20 -20 -20 -30 0 -11 -7 -20 -15
-20 -8 0 -15 -4 -15 -8 0 -4 -25 -37 -55 -72 -30 -36 -55 -71 -55 -78 0 -6
-17 -29 -39 -50 -21 -20 -41 -45 -44 -54 -4 -10 -13 -18 -22 -18 -11 0 -15 -8
-13 -27 2 -21 -2 -29 -17 -31 -25 -4 -114 -114 -97 -120 21 -7 13 -21 -15 -24
-20 -2 -29 -9 -31 -26 -2 -12 -11 -26 -21 -32 -10 -5 -21 -23 -24 -40 -5 -21
-12 -30 -27 -30 -11 0 -20 -7 -20 -15 0 -7 -6 -18 -13 -22 -8 -4 -18 -15 -23
-24 -17 -30 -76 -99 -86 -99 -5 0 -20 12 -33 28 -20 22 -24 24 -25 10 0 -11
-8 -18 -20 -18 -21 0 -27 15 -10 25 12 7 -57 75 -76 75 -8 0 -14 6 -14 14 0 8
-11 23 -25 34 -14 11 -25 24 -25 28 0 5 -7 18 -15 28 -12 15 -17 17 -29 7 -8
-7 -20 -10 -26 -6 -14 9 -13 32 3 39 6 3 3 4 -8 3 -14 -1 -19 3 -17 16 2 9 -5
20 -15 24 -10 4 -40 29 -67 55 -27 26 -53 48 -57 48 -5 0 -9 9 -9 20 0 11 -7
20 -15 20 -9 0 -12 6 -9 15 4 8 1 15 -5 15 -6 0 -11 -4 -11 -10 0 -13 -27 -13
-36 1 -3 6 -1 16 5 22 18 18 13 26 -25 33 -28 5 -35 10 -31 25 4 14 0 19 -14
19 -10 0 -19 6 -19 13 0 8 -11 20 -25 27 -14 7 -25 17 -25 21 0 13 -124 135
-145 143 -16 6 -17 9 -5 16 11 7 12 11 0 25 -11 13 -11 22 0 55 7 22 19 40 25
40 7 0 48 35 91 79 116 116 146 150 139 162 -11 16 15 41 30 29 9 -8 14 -6 19
6 3 9 4 20 0 25 -3 5 1 9 9 9 7 0 24 20 36 45 12 25 26 45 31 45 5 0 11 14 15
30 4 17 11 30 15 30 14 0 100 188 94 205 -4 8 1 17 9 21 9 3 19 20 23 37 3 18
10 37 14 42 8 11 26 79 40 155 4 25 15 74 22 110 15 66 17 363 4 515 -6 80
-33 191 -51 218 -7 10 -11 26 -8 35 2 10 -15 62 -38 117 -23 55 -51 124 -63
152 -11 29 -27 53 -34 53 -7 0 -18 14 -24 30 -5 17 -19 35 -30 41 -12 7 -17
17 -13 28 3 10 -1 24 -10 31 -8 7 -15 17 -15 22 0 21 -113 152 -221 256 -135
130 -167 157 -196 166 -12 4 -25 15 -28 26 -3 10 -14 18 -23 17 -19 -1 -72 31
-72 44 0 5 -11 9 -25 9 -15 0 -28 7 -32 16 -11 29 -220 116 -403 168 -140 39
-196 40 -2168 43 -1669 2 -1904 1 -1908 -12 -4 -8 -11 -15 -18 -15 -18 -1 -56
-37 -56 -54 0 -8 -10 -20 -21 -27 -31 -16 -21 -79 20 -121 17 -17 33 -40 37
-50 3 -11 17 -23 30 -28 15 -6 24 -18 24 -30 0 -11 8 -24 18 -27 9 -4 41 -32
70 -64 29 -32 61 -61 72 -64 11 -4 23 -17 26 -30 4 -17 11 -21 26 -17 18 4 20
2 15 -17 -4 -15 0 -24 11 -28 9 -4 69 -58 133 -122 64 -64 122 -121 130 -128
8 -7 36 -36 62 -66 36 -40 54 -53 69 -49 14 3 21 -1 25 -17 3 -11 9 -21 14
-21 5 0 9 -8 9 -18 0 -24 79 -97 105 -97 14 0 20 -6 19 -22 0 -13 4 -23 10
-23 6 0 22 -14 36 -30 14 -16 30 -30 37 -30 7 0 16 -6 20 -14 4 -7 22 -26 40
-40 27 -23 35 -25 52 -14 16 10 23 9 38 -3 10 -9 26 -19 36 -22 10 -4 619 -7
1353 -7 775 0 1334 -4 1334 -9 0 -5 8 -7 18 -5 18 5 142 -63 142 -78 0 -4 14
-17 31 -27 32 -19 41 -33 79 -108 11 -24 24 -43 28 -43 4 0 5 -55 3 -122 -3
-118 -5 -125 -38 -188 -44 -80 -83 -123 -148 -160 -119 -68 -66 -64 -860 -67
-780 -4 -814 -5 -832 -16 -6 -4 -18 -4 -26 -1 -42 16 -147 -86 -147 -141 0
-25 103 -175 120 -175 19 0 70 -53 70 -74 0 -9 4 -16 9 -16 9 0 185 -172 186
-182 0 -11 44 -58 55 -58 12 0 130 -121 130 -133 0 -4 8 -7 18 -6 30 3 35 -1
23 -15 -9 -11 -9 -16 0 -21 6 -4 15 -2 19 5 5 9 9 9 14 1 4 -6 2 -11 -3 -11
-6 0 -11 -4 -11 -10 0 -5 9 -10 20 -10 11 0 20 -5 20 -10 0 -14 92 -110 105
-110 6 0 16 -13 22 -30 8 -20 18 -30 32 -30 14 0 21 -6 21 -19 0 -26 22 -41
49 -34 22 6 23 4 17 -20 -5 -21 -2 -26 15 -29 12 -2 27 -12 33 -22 17 -30 88
-96 115 -107 18 -7 21 -13 13 -21 -15 -15 13 -48 40 -48 11 0 22 -9 25 -19 3
-11 16 -22 29 -25 15 -4 24 -14 24 -26 0 -13 7 -20 20 -20 11 0 20 -6 20 -14
0 -22 86 -110 95 -97 5 9 10 9 21 0 11 -9 11 -15 3 -25 -9 -11 -8 -14 5 -14 9
0 16 -6 16 -14 0 -7 12 -22 27 -31 35 -23 123 -113 123 -126 0 -5 6 -9 13 -8
17 3 67 -19 67 -29 0 -4 -6 -14 -12 -21 -17 -17 15 -41 44 -33 18 4 20 2 15
-17 -3 -14 -1 -21 7 -19 16 4 82 -61 90 -89 5 -16 15 -23 33 -23 20 0 24 -4
20 -20 -3 -13 0 -20 9 -20 8 0 14 -4 14 -9 0 -20 59 -74 73 -68 16 6 41 -15
31 -26 -6 -6 124 -137 136 -137 4 0 12 -11 18 -25 6 -14 18 -25 27 -25 20 0
66 -41 59 -52 -8 -13 16 -38 37 -38 12 0 19 -7 19 -20 0 -11 5 -20 10 -20 14
0 130 -116 130 -129 0 -6 4 -11 9 -11 8 0 51 -42 170 -164 30 -31 60 -56 67
-56 7 0 18 -9 23 -19 6 -10 37 -34 68 -52 l58 -34 754 -3 c875 -3 829 -7 921
86 30 30 64 74 75 96 12 23 27 40 35 39 15 -3 60 54 60 75 0 7 5 12 11 12 17
0 77 72 72 87 -3 7 0 13 7 13 15 0 39 29 40 47 0 6 17 29 38 50 20 21 70 81
109 134 40 52 79 101 87 109 9 7 16 19 16 27 0 7 7 16 15 19 8 4 15 15 15 25
0 10 7 19 15 19 8 0 15 4 15 8 0 4 25 38 55 75 30 36 55 72 55 79 0 7 10 18
22 23 13 6 28 21 34 33 6 13 17 29 23 35 6 6 11 19 11 28 0 9 22 36 49 59 28
22 53 51 57 63 7 23 12 29 71 92 22 23 37 48 35 58 -2 12 3 17 17 17 12 0 21
5 21 11 0 6 18 31 40 56 22 25 40 51 40 57 0 5 9 19 20 31 40 40 70 83 70 99
0 9 4 16 9 16 13 0 87 79 118 126 14 21 46 62 70 91 23 28 43 55 43 60 0 5 8
16 18 25 9 9 26 29 37 44 11 14 34 43 50 63 74 87 135 172 135 186 0 8 7 15
15 15 9 0 19 8 22 18 4 9 14 22 24 29 9 7 19 26 22 43 4 17 13 30 21 30 9 0
21 10 27 23 6 12 27 35 45 50 19 16 34 38 34 49 0 11 8 22 20 25 11 3 20 11
20 19 0 7 11 21 25 30 15 10 25 26 25 40 0 14 6 24 15 24 8 0 21 13 29 28 8
16 22 35 31 42 14 12 49 60 100 139 6 9 25 31 43 50 17 18 32 42 32 52 0 10 7
19 15 19 13 0 53 47 122 144 33 44 51 68 145 184 46 56 98 124 116 150 17 26
37 49 42 50 6 2 10 8 10 14 0 6 17 30 38 53 20 23 62 75 92 115 30 40 64 82
75 94 11 12 33 42 50 67 16 24 32 46 35 49 3 3 28 34 55 70 27 36 69 86 92
112 24 26 43 56 43 68 0 11 7 20 15 20 9 0 21 12 28 27 6 15 33 49 60 77 26
27 46 56 45 65 -2 11 3 15 15 13 11 -2 17 2 15 10 -2 8 3 20 9 28 45 53 63 79
63 90 0 6 32 43 71 80 41 40 68 73 64 80 -4 7 2 14 14 17 14 3 21 13 21 29 0
15 6 24 15 24 8 0 24 20 35 44 11 25 24 48 30 51 5 3 10 28 10 56 0 50 -28 99
-57 99 -7 0 -18 9 -25 20 -9 14 -24 20 -47 20 -19 0 -42 6 -50 13 -13 9 -152
11 -651 7z m-5535 -125 c77 -9 158 -21 180 -27 22 -6 58 -14 80 -18 46 -9 97
-26 138 -46 16 -8 35 -14 42 -14 7 0 26 -7 42 -15 15 -7 48 -23 73 -35 48 -23
62 -30 128 -72 24 -16 45 -28 48 -28 14 0 172 -129 246 -202 74 -72 221 -253
241 -298 4 -8 16 -28 27 -45 11 -16 22 -37 26 -45 3 -8 10 -22 15 -30 5 -8 12
-22 15 -30 9 -24 35 -83 50 -113 8 -16 14 -36 14 -45 0 -9 7 -30 15 -46 8 -15
15 -40 15 -55 1 -14 7 -37 15 -51 8 -14 15 -43 15 -65 0 -22 7 -67 15 -100 30
-123 18 -376 -27 -565 -6 -25 -14 -61 -18 -80 -10 -44 -29 -97 -46 -132 -8
-14 -14 -35 -14 -46 0 -11 -7 -25 -15 -32 -8 -7 -15 -20 -15 -30 0 -10 -7 -23
-15 -30 -8 -7 -15 -21 -15 -31 0 -10 -5 -21 -11 -24 -5 -4 -15 -17 -20 -28
-45 -100 -165 -255 -286 -371 -69 -65 -202 -165 -230 -172 -13 -4 -23 -12 -23
-19 0 -8 95 -107 212 -222 116 -114 355 -351 530 -525 175 -175 322 -318 328
-318 5 0 10 4 10 9 0 11 176 250 195 266 7 6 55 65 106 133 233 307 281 367
290 370 5 2 9 8 9 14 0 5 7 17 16 25 9 9 57 71 107 137 50 67 96 126 103 131
6 6 46 57 89 115 43 58 83 110 89 115 7 6 54 66 106 135 51 69 99 130 105 135
6 6 40 48 75 95 35 47 70 91 77 98 7 7 13 16 13 20 0 4 13 21 28 37 15 17 57
68 92 115 35 47 67 87 70 90 4 3 51 64 106 135 54 72 104 135 110 140 6 6 53
66 105 135 51 69 106 139 121 155 15 17 28 33 28 37 0 4 6 13 13 20 7 7 42 51
77 98 36 47 73 94 83 106 23 27 159 202 294 379 59 77 112 145 119 150 6 6 46
57 89 115 43 58 83 110 89 115 7 6 48 57 92 114 43 57 90 119 104 137 53 69
85 112 95 128 9 14 78 16 710 17 799 0 747 7 657 -86 -45 -47 -157 -186 -194
-242 -9 -14 -20 -29 -25 -32 -10 -7 -158 -198 -185 -239 -9 -13 -20 -28 -25
-31 -5 -3 -37 -43 -71 -88 -35 -46 -74 -95 -87 -109 -14 -15 -25 -31 -25 -35
0 -5 -8 -17 -18 -27 -10 -10 -47 -56 -82 -103 -35 -46 -67 -86 -70 -89 -4 -3
-51 -63 -106 -135 -54 -71 -104 -134 -110 -140 -6 -5 -53 -66 -105 -135 -51
-69 -98 -129 -105 -135 -6 -5 -46 -57 -89 -115 -43 -58 -83 -109 -89 -115 -7
-5 -54 -66 -105 -135 -52 -69 -99 -129 -105 -135 -7 -5 -54 -66 -105 -135 -52
-69 -99 -129 -105 -135 -7 -5 -41 -48 -76 -95 -35 -47 -67 -87 -70 -90 -4 -3
-57 -70 -118 -150 -217 -282 -274 -355 -292 -377 -11 -12 -63 -80 -117 -150
-54 -70 -103 -132 -109 -138 -6 -5 -53 -66 -105 -135 -51 -69 -98 -129 -104
-135 -6 -5 -54 -66 -105 -135 -52 -69 -99 -129 -106 -135 -6 -5 -46 -57 -89
-115 -43 -58 -84 -110 -91 -116 -8 -6 -14 -15 -14 -19 0 -4 -6 -13 -14 -19 -7
-6 -47 -56 -89 -112 -42 -56 -82 -107 -89 -115 -8 -8 -43 -52 -78 -99 -35 -47
-66 -87 -69 -90 -4 -3 -19 -24 -35 -47 -16 -24 -32 -43 -35 -43 -4 0 -20 -20
-35 -45 -16 -25 -34 -45 -40 -45 -6 0 -365 0 -797 0 l-786 0 -169 166 c-93 92
-623 618 -1178 1168 -1328 1318 -1255 1246 -1304 1285 -23 18 -42 39 -42 45 0
8 223 10 831 8 905 -3 860 -6 977 52 84 41 96 49 152 108 59 61 124 175 135
238 21 122 13 254 -21 320 -7 14 -15 32 -18 40 -20 51 -90 134 -154 182 -73
54 -88 63 -159 88 -57 20 -76 20 -1433 20 l-1375 1 -411 407 c-447 443 -603
595 -648 629 -15 13 -26 28 -23 35 3 11 371 13 1863 11 1645 -2 1875 -4 1999
-18z"/>
<path d="M4173 5913 c-32 -6 -128 -103 -142 -142 -7 -23 -11 -147 -11 -386 l0
-351 26 -51 c20 -41 31 -52 52 -55 19 -2 27 -9 27 -23 0 -16 6 -20 28 -18 22
1 27 -2 23 -12 -8 -22 116 -21 138 0 8 8 22 15 31 15 10 0 15 5 12 14 -6 15
26 46 48 46 8 0 15 4 15 9 0 4 11 20 25 35 l25 27 37 -28 c21 -15 40 -32 42
-38 2 -5 18 -22 34 -37 21 -20 35 -26 52 -22 18 4 25 1 30 -15 6 -19 14 -21
75 -21 58 0 73 4 98 25 17 14 33 25 37 25 13 0 55 50 55 66 0 7 5 14 10 14 15
0 12 33 -5 56 -8 10 -15 28 -15 39 0 11 -11 37 -24 56 -40 58 -41 79 -7 129
17 25 31 50 31 56 0 6 6 17 14 23 29 24 38 241 11 271 -8 9 -15 25 -15 35 0
10 -18 40 -40 66 -22 26 -40 51 -40 55 0 14 -65 65 -115 89 -95 46 -155 55
-355 54 -102 -1 -195 -4 -207 -6z m402 -120 c100 -18 141 -36 196 -88 62 -58
79 -103 79 -203 0 -68 -5 -97 -20 -127 -25 -50 -79 -105 -102 -105 -14 0 -38
-27 -38 -43 0 -2 14 -20 30 -38 17 -19 42 -52 57 -74 16 -22 30 -42 33 -45 3
-3 21 -25 39 -48 25 -32 31 -46 22 -52 -16 -10 -190 0 -213 12 -10 5 -18 14
-18 19 0 6 -13 28 -29 48 -15 20 -30 41 -32 46 -2 6 -20 34 -38 63 l-34 52
-89 0 -89 0 7 -120 7 -120 -107 0 -106 0 0 420 0 419 178 0 c115 0 209 -6 267
-16z"/>
<path d="M4339 5642 c-1 -4 -3 -69 -4 -144 l-2 -138 114 0 c104 0 116 2 151
25 20 14 45 42 55 63 37 78 -18 175 -104 186 -79 9 -209 14 -210 8z"/>
<path d="M5794 5904 c-49 -24 -104 -74 -104 -95 0 -10 -9 -28 -20 -39 -26 -26
-100 -179 -100 -207 0 -13 -6 -26 -13 -29 -7 -2 -30 -42 -51 -87 -21 -45 -44
-95 -52 -110 -8 -16 -11 -33 -8 -38 3 -5 -6 -23 -20 -40 -14 -17 -26 -38 -26
-47 0 -9 -7 -26 -15 -36 -8 -11 -15 -32 -15 -47 0 -15 -4 -30 -9 -33 -12 -8
-22 -78 -12 -90 5 -6 11 -22 13 -36 2 -16 11 -26 28 -30 16 -4 26 -14 28 -28
7 -44 145 -71 203 -39 53 28 79 50 77 64 -2 9 5 19 15 24 25 13 48 27 82 49
41 27 127 27 189 0 25 -12 46 -27 46 -35 0 -8 10 -20 23 -26 12 -7 41 -29 64
-50 42 -38 44 -39 118 -39 67 0 79 3 101 25 13 13 33 29 44 35 11 6 20 16 20
22 0 6 7 19 15 28 25 28 23 104 -4 140 -12 17 -20 38 -17 46 3 9 -1 25 -9 37
-8 12 -15 29 -15 38 0 9 -8 19 -19 22 -12 3 -20 17 -23 43 -5 35 -29 91 -130
301 -16 35 -27 67 -23 72 3 6 -3 19 -13 29 -11 11 -22 31 -26 46 -3 14 -11 26
-16 26 -6 0 -10 6 -10 14 0 19 -94 105 -135 122 -45 18 -142 18 -181 -2z m207
-141 c40 -93 47 -109 79 -178 17 -38 37 -83 44 -100 17 -39 37 -84 76 -170 18
-38 40 -88 50 -110 34 -76 81 -170 98 -197 11 -18 13 -30 7 -36 -6 -4 -56 -6
-112 -4 -89 3 -103 6 -103 21 0 9 -7 26 -15 37 -8 10 -15 28 -15 39 -1 11 -9
35 -18 54 l-17 33 -185 -1 c-102 0 -188 -1 -191 -1 -4 0 -14 -21 -24 -47 -9
-27 -23 -62 -31 -80 -8 -17 -14 -36 -14 -41 0 -13 -190 -21 -208 -8 -10 7 -10
12 2 25 8 9 19 27 25 41 6 14 15 32 20 40 5 8 17 33 26 55 10 22 22 47 27 55
4 8 11 22 14 30 9 26 41 98 94 215 18 39 38 84 45 100 19 44 40 92 74 168 17
37 31 73 31 80 0 24 12 27 107 27 l93 0 21 -47z"/>
<path d="M5869 5584 c-6 -16 -15 -37 -20 -46 -5 -10 -9 -26 -9 -36 0 -10 -7
-27 -15 -38 -8 -10 -15 -28 -15 -39 0 -12 -5 -26 -10 -31 -13 -13 -51 -87 -46
-91 3 -3 221 -6 254 -4 17 1 15 26 -3 41 -8 7 -15 20 -15 29 0 9 -5 22 -12 29
-13 13 -38 75 -45 115 -3 15 -9 30 -14 33 -5 3 -9 13 -9 23 0 10 -7 24 -15 31
-12 10 -16 7 -26 -16z"/>
<path d="M6857 5906 c-41 -15 -77 -43 -77 -59 0 -6 -10 -21 -21 -33 -27 -28
-29 -95 -5 -119 19 -20 20 -27 4 -43 -9 -9 -9 -12 0 -12 7 0 12 -11 12 -24 0
-13 7 -29 15 -36 8 -7 15 -23 15 -35 0 -12 7 -28 15 -35 8 -7 17 -28 21 -49 3
-20 18 -61 32 -91 84 -182 102 -223 102 -233 0 -5 21 -47 47 -91 48 -82 101
-146 121 -146 6 0 15 -6 19 -14 22 -38 182 -37 221 2 12 12 26 22 30 22 30 0
152 185 138 209 -3 4 6 23 20 42 13 18 22 39 19 47 -4 12 16 58 45 102 22 33
120 266 120 285 0 11 9 31 20 45 21 27 26 50 10 50 -5 0 -10 7 -10 15 0 8 9
15 20 15 30 0 25 40 -12 96 -40 60 -86 91 -144 100 -73 11 -108 -2 -173 -62
-45 -41 -71 -77 -106 -147 -26 -51 -55 -101 -66 -112 -17 -17 -21 -18 -33 -5
-18 18 -93 163 -98 187 -2 10 -12 18 -23 18 -14 0 -19 6 -18 20 2 24 -53 72
-105 91 -48 17 -107 17 -155 0z m181 -121 c3 -19 19 -64 47 -130 7 -16 20 -47
29 -67 9 -21 22 -53 29 -70 21 -50 47 -110 63 -141 8 -16 14 -37 14 -47 0 -10
4 -21 9 -24 5 -4 12 -24 16 -46 4 -24 12 -40 21 -40 14 0 44 49 44 74 0 8 7
28 15 45 8 17 22 45 30 62 8 17 15 39 15 49 0 9 7 23 15 30 8 7 15 23 15 35 0
12 7 28 15 35 8 7 15 19 15 26 0 8 14 43 30 77 17 35 30 68 30 72 0 5 8 26 18
46 l17 38 98 1 c115 0 111 8 50 -120 -34 -71 -50 -105 -79 -175 -7 -16 -27
-61 -44 -100 -32 -70 -49 -110 -77 -175 -25 -58 -42 -98 -57 -132 -8 -18 -23
-55 -35 -83 l-20 -50 -96 0 -96 0 -20 50 c-32 78 -72 170 -138 318 -17 37 -31
71 -31 76 0 5 -6 22 -14 38 -42 82 -76 160 -76 174 0 9 -7 22 -15 29 -8 7 -15
19 -15 28 0 8 -7 23 -15 32 -18 20 -36 76 -27 85 3 3 53 4 111 3 97 -3 106 -5
109 -23z"/>
<path d="M8340 5909 c-33 -13 -60 -39 -71 -67 -5 -12 -20 -26 -33 -32 -35 -13
-52 -69 -36 -124 8 -30 8 -49 1 -69 -16 -42 -15 -479 1 -495 10 -10 10 -17 1
-31 -19 -30 6 -116 36 -126 10 -3 25 -21 34 -40 31 -65 52 -70 333 -73 272 -4
320 2 359 44 12 13 26 24 31 25 17 1 74 99 74 128 0 44 -27 101 -49 101 -27 0
-78 105 -61 125 6 8 9 19 5 25 -3 5 3 22 14 35 26 34 26 106 0 139 -12 16 -19
40 -19 70 0 39 4 48 34 71 44 33 60 74 53 130 -5 35 -17 55 -59 99 -29 30 -66
60 -81 65 -36 14 -533 13 -567 0z m598 -179 c1 -41 -1 -80 -5 -86 -8 -11 -353
-2 -393 11 -10 3 -22 0 -26 -7 -12 -19 -12 -167 0 -176 6 -5 89 -4 184 1 95 5
180 6 188 3 18 -7 20 -139 2 -153 -8 -6 -80 -7 -193 -3 -105 5 -182 4 -186 -1
-6 -10 -4 -188 3 -193 1 -1 100 1 218 4 118 4 218 5 223 3 4 -2 7 -40 7 -84
l0 -79 -326 2 -325 3 0 413 c0 226 0 414 1 415 0 2 141 3 313 3 l312 -1 3 -75z"/>
<path d="M9660 5909 c-31 -13 -107 -85 -126 -121 -11 -22 -14 -97 -14 -400 0
-345 1 -376 19 -408 10 -19 27 -40 38 -45 11 -6 31 -23 45 -39 19 -23 36 -31
78 -36 31 -4 69 -2 89 4 54 16 127 96 147 161 10 31 24 55 31 55 16 0 113 -94
113 -110 0 -5 7 -10 15 -10 8 0 19 -9 26 -21 7 -14 17 -19 31 -16 14 4 22 0
25 -14 3 -11 18 -26 34 -34 32 -17 131 -20 160 -5 30 17 107 96 114 119 3 12
10 21 15 21 5 0 9 162 9 366 l0 366 -30 52 c-65 117 -162 155 -266 105 -66
-32 -133 -129 -133 -192 0 -27 -37 -20 -67 13 -14 17 -32 30 -39 30 -7 0 -16
9 -19 20 -10 33 -85 100 -140 126 -52 25 -112 30 -155 13z m178 -161 c26 -34
54 -69 62 -78 8 -9 51 -61 95 -115 44 -55 85 -106 92 -113 7 -7 28 -36 47 -65
58 -87 103 -96 77 -15 -5 18 -13 126 -16 241 l-6 207 103 0 103 0 0 -420 0
-420 -81 0 -80 0 -65 82 c-35 45 -71 88 -79 96 -38 38 -230 291 -230 303 0 5
-8 9 -19 9 -18 0 -18 -10 -13 -245 l5 -245 -101 0 c-99 0 -102 1 -108 24 -3
14 -3 29 0 35 9 13 9 718 1 731 -3 6 -3 19 0 30 6 18 15 20 86 20 l79 0 48
-62z"/>
<path d="M11395 5913 c-47 -7 -163 -133 -197 -213 -15 -36 -35 -83 -44 -105
-10 -22 -16 -50 -15 -62 1 -12 -6 -27 -18 -35 -11 -8 -23 -26 -26 -40 -7 -27
-48 -112 -64 -132 -5 -6 -32 -69 -60 -141 -46 -113 -50 -132 -40 -152 10 -18
10 -26 1 -35 -16 -16 -15 -28 2 -28 8 0 34 -23 59 -52 l45 -52 69 -4 c87 -5
111 6 209 99 l73 69 66 0 c37 0 75 -5 85 -10 13 -7 21 -7 25 0 10 16 23 12 30
-9 8 -26 114 -130 143 -142 33 -13 139 -11 164 2 24 13 95 86 109 111 18 33 8
84 -31 162 -22 43 -40 89 -40 101 0 12 -9 34 -20 48 -11 14 -20 27 -20 30 0 3
-16 40 -35 81 -19 42 -35 82 -35 89 0 6 -9 26 -20 42 -11 17 -20 36 -20 42 0
26 -92 203 -105 203 -8 0 -18 12 -21 27 -8 29 -46 67 -97 96 -31 16 -98 20
-172 10z m186 -150 c22 -48 33 -74 83 -188 15 -33 33 -73 41 -88 8 -16 15 -34
15 -42 0 -7 7 -18 15 -25 8 -7 15 -23 15 -35 0 -12 7 -28 15 -35 8 -7 15 -19
15 -27 0 -8 6 -27 14 -41 7 -15 27 -56 43 -92 41 -90 72 -150 91 -182 9 -15
13 -30 9 -34 -9 -9 -200 -5 -208 4 -3 4 -12 25 -21 47 -9 22 -24 59 -33 83
l-18 42 -191 0 -191 0 -17 -43 c-9 -23 -24 -63 -33 -89 l-18 -48 -108 0 c-100
0 -128 7 -98 26 6 3 17 21 25 38 8 17 18 38 23 46 5 8 24 47 41 85 18 39 38
82 46 97 8 14 14 33 14 41 0 8 7 20 15 27 8 7 15 23 15 35 0 12 7 28 15 35 8
7 15 18 15 25 0 8 6 26 14 42 8 15 21 44 29 63 32 74 50 116 59 130 4 8 11 22
14 30 20 53 33 87 38 103 5 15 19 17 101 17 l95 0 21 -47z"/>
<path d="M11452 5593 c-5 -10 -17 -44 -26 -75 -10 -32 -22 -60 -27 -64 -5 -3
-9 -16 -9 -28 0 -13 -7 -29 -15 -36 -8 -7 -15 -19 -15 -28 0 -8 -7 -24 -17
-34 -9 -10 -14 -21 -10 -24 7 -8 256 -9 264 -1 3 4 -9 37 -27 74 -42 88 -55
119 -70 171 -16 53 -35 71 -48 45z"/>
<path d="M12573 5910 c-41 -17 -120 -104 -132 -146 -13 -47 -15 -690 -2 -745
10 -43 91 -132 139 -152 46 -19 139 -7 163 21 9 12 21 22 27 22 5 0 35 24 67
54 31 30 62 53 69 50 6 -2 19 -18 29 -35 9 -17 26 -33 37 -36 11 -3 20 -9 20
-14 0 -6 8 -13 18 -16 9 -4 30 -17 45 -30 24 -19 40 -23 98 -23 53 0 71 4 75
15 4 8 17 15 30 15 13 0 24 6 24 13 0 8 17 28 38 45 32 25 39 36 37 64 0 18
-6 43 -13 55 -7 12 -12 29 -12 38 0 8 -7 18 -15 21 -8 4 -15 14 -15 24 0 10
-9 24 -21 31 -19 13 -19 16 -5 50 8 20 22 39 31 42 8 4 15 18 15 31 0 14 8 29
17 35 10 5 15 13 11 17 -4 3 -2 16 4 28 7 11 13 37 14 58 1 20 5 50 9 67 5 24
3 31 -9 31 -19 0 -20 13 -4 39 11 18 5 35 -48 131 -19 35 -132 138 -176 161
-70 36 -168 49 -361 48 -100 0 -192 -4 -204 -9z m417 -117 c126 -25 181 -59
236 -144 27 -41 29 -50 29 -149 -1 -96 -3 -109 -27 -146 -24 -38 -55 -64 -103
-89 -25 -13 -31 -43 -13 -58 8 -7 52 -61 98 -121 56 -74 79 -111 70 -116 -6
-4 -55 -5 -107 -2 -96 5 -118 13 -136 53 -10 21 -29 50 -59 90 -16 20 -28 41
-28 45 -1 5 -9 19 -19 32 -17 20 -28 22 -106 22 l-87 0 3 -117 4 -118 -98 0
-98 0 0 413 c0 226 0 414 1 416 1 12 371 3 440 -11z"/>
<path d="M12745 5642 c-3 -3 -5 -68 -5 -144 l0 -138 115 0 c95 0 120 3 146 19
48 29 69 68 69 127 0 45 -4 55 -36 87 -30 29 -46 37 -88 41 -90 9 -195 13
-201 8z"/>
<path d="M13863 5910 c-31 -13 -111 -94 -123 -125 -5 -14 -8 -50 -5 -81 3 -46
10 -62 44 -103 42 -50 85 -76 141 -87 17 -4 35 -15 41 -26 6 -12 10 -93 9
-203 0 -166 1 -185 17 -194 14 -8 16 -14 7 -28 -7 -12 -8 -27 -1 -48 6 -16 11
-36 13 -42 2 -7 13 -13 24 -13 13 0 20 -7 20 -18 0 -10 19 -32 42 -50 36 -27
50 -32 99 -32 75 0 129 22 122 50 -3 13 0 20 8 20 8 0 30 15 49 32 l35 32 5
244 c5 236 6 244 27 262 12 9 40 20 62 24 42 6 111 57 111 81 0 8 9 16 19 20
38 12 54 111 27 163 -20 38 -95 109 -129 121 -35 13 -632 14 -664 1z m703
-182 c1 -52 -2 -81 -11 -88 -9 -7 -49 -8 -131 -1 -66 5 -121 8 -123 5 -2 -2
-3 -154 -2 -339 l2 -335 -107 0 -107 0 6 98 c10 148 10 563 1 572 -5 5 -63 4
-128 -1 -96 -9 -120 -8 -127 3 -9 14 -12 151 -4 160 3 2 168 4 367 4 l363 -1
1 -77z"/>
</g>
</svg>
