<?xml version="1.0" encoding="utf-8"?>
<!-- Generator: Adobe Illustrator 27.5.0, SVG Export Plug-In . SVG Version: 6.00 Build 0)  -->
<svg version="1.1" xmlns="http://www.w3.org/2000/svg" xmlns:xlink="http://www.w3.org/1999/xlink" x="0px" y="0px"
	 viewBox="0 0 1200 736" style="enable-background:new 0 0 1200 736;" xml:space="preserve">
<g id="BACKGROUND">
	<rect x="0.668" y="-1" width="1200.332" height="736.505"/>
</g>
<g id="TEXT">
	<g>
		<g>
			<g>
				<polyline style="fill:none;stroke:#FFFFFF;stroke-width:5;stroke-miterlimit:10;" points="27,499.539 27,691.079 
					216.922,691.079 				"/>
				<polyline style="fill:none;stroke:#FFFFFF;stroke-width:5;stroke-miterlimit:10;" points="216.922,38.064 27,38.064 27,223.303 
									"/>
			</g>
			<g>
				<polyline style="fill:none;stroke:#FFFFFF;stroke-width:5;stroke-miterlimit:10;" points="1179,499.539 1179,691.079 
					989.078,691.079 				"/>
				<polyline style="fill:none;stroke:#FFFFFF;stroke-width:5;stroke-miterlimit:10;" points="989.078,38.064 1179,38.064 
					1179,223.303 				"/>
			</g>
		</g>
		<g>
			<circle style="fill:#B51700;" cx="61.653" cy="76.95" r="11.84"/>
			<text transform="matrix(1 0 0 1 80.0317 90.5679)" style="fill:#FCFCFC; font-family:'Raleway-SemiBold'; font-size:41.1534px;">REC</text>
		</g>
		<g>
			<g>
				<g>
					<polyline style="fill:none;stroke:#FFFFFF;stroke-width:5;stroke-miterlimit:10;" points="378.229,416.607 378.229,490.454 
						451.452,490.454 					"/>
					<polyline style="fill:none;stroke:#FFFFFF;stroke-width:5;stroke-miterlimit:10;" points="451.452,238.689 378.229,238.689 
						378.229,310.106 					"/>
				</g>
				<g>
					<polyline style="fill:none;stroke:#FFFFFF;stroke-width:5;stroke-miterlimit:10;" points="822.374,416.607 822.374,490.454 
						749.151,490.454 					"/>
					<polyline style="fill:none;stroke:#FFFFFF;stroke-width:5;stroke-miterlimit:10;" points="749.151,238.689 822.374,238.689 
						822.374,310.106 					"/>
				</g>
			</g>
			<g>
				
					<line style="fill:none;stroke:#FFFFFF;stroke-width:5;stroke-miterlimit:10;" x1="599.288" y1="346.357" x2="599.288" y2="379.862"/>
				
					<line style="fill:none;stroke:#FFFFFF;stroke-width:5;stroke-miterlimit:10;" x1="616.04" y1="363.11" x2="582.535" y2="363.11"/>
			</g>
		</g>
		<g>
			<g>
				<path style="fill:none;stroke:#FFFFFF;stroke-width:2;stroke-miterlimit:10;" d="M1095.857,92.487h-57.315
					c-4.321,0-7.825-3.503-7.825-7.825V70.629c0-4.321,3.503-7.825,7.825-7.825h57.315c4.321,0,7.824,3.503,7.824,7.825v14.033
					C1103.681,88.983,1100.178,92.487,1095.857,92.487z"/>
				<path style="fill:none;stroke:#FFFFFF;stroke-width:2;stroke-miterlimit:10;" d="M1095.857,92.487h-57.315
					c-4.321,0-7.825-3.503-7.825-7.825V70.629c0-4.321,3.503-7.825,7.825-7.825h57.315c4.321,0,7.824,3.503,7.824,7.825v14.033
					C1103.681,88.983,1100.178,92.487,1095.857,92.487z"/>
				<path style="fill:none;stroke:#FFFFFF;stroke-width:2;stroke-miterlimit:10;" d="M1029.818,86.344h-2.605
					c-2.284,0-4.135-1.851-4.135-4.135v-9.127c0-2.284,1.852-4.135,4.135-4.135h2.605"/>
				<g>
					<polygon style="fill:#8AC73C;" points="1062.949,65.302 1073.212,89.925 1088.897,89.925 1078.633,65.302 					"/>
					<path style="fill:#8AC73C;" d="M1037.362,65.302c-2.49,0-4.509,2.019-4.509,4.509v15.605c0,2.49,2.019,4.509,4.509,4.509
						h15.781l-10.263-24.623H1037.362z"/>
					<polygon style="fill:#8AC73C;" points="1045.072,65.302 1055.335,89.925 1071.02,89.925 1060.756,65.302 					"/>
					<path style="fill:#8AC73C;" d="M1097.154,65.302h-16.328l10.263,24.623h6.065c2.49,0,4.509-2.019,4.509-4.509V69.811
						C1101.663,67.321,1099.644,65.302,1097.154,65.302z"/>
					<polygon style="fill:#0F0F0F;" points="1042.88,65.302 1053.143,89.925 1055.335,89.925 1045.072,65.302 					"/>
					<polygon style="fill:#0F0F0F;" points="1060.756,65.302 1071.02,89.925 1073.212,89.925 1062.949,65.302 					"/>
					<polygon style="fill:#0F0F0F;" points="1078.633,65.302 1088.897,89.925 1091.089,89.925 1080.826,65.302 					"/>
				</g>
			</g>
			
				<text transform="matrix(1 0 0 1 1114.9648 84.0254)" style="fill:#FFFFFF; font-family:'OpenSans-Semibold'; font-size:21.5324px;">99%</text>
		</g>
		<g>
			<g>
				<rect x="796.536" y="60.444" style="fill:#FFFFFF;" width="50.593" height="34.403"/>
				<text transform="matrix(1 0 0 1 803.0049 86.2817)" style="font-family:'OpenSans-Semibold'; font-size:25.3584px;">HD</text>
			</g>
			
				<rect x="860.283" y="60.444" style="fill:none;stroke:#FFFFFF;stroke-width:2;stroke-miterlimit:10;" width="50.593" height="34.403"/>
			
				<text transform="matrix(1 0 0 1 868.7754 86.2817)" style="fill:#FFFFFF; font-family:'OpenSans-Semibold'; font-size:25.3584px;">4K</text>
		</g>
		
			<text transform="matrix(1 0 0 1 922.2051 84.9321)" style="fill:#FFFFFF; font-family:'OpenSans-Semibold'; font-size:25.3584px;">25FPS</text>
		<g>
			
				<text transform="matrix(1 0 0 1 1038.4717 663.9111)" style="fill:#FFFFFF; font-family:'OpenSans-Semibold'; font-size:24.612px;">MENU</text>
			<g>
				
					<line style="fill:none;stroke:#FFFFFF;stroke-width:2;stroke-miterlimit:10;" x1="1118.584" y1="647.731" x2="1126.237" y2="647.731"/>
				
					<line style="fill:none;stroke:#FFFFFF;stroke-width:2;stroke-miterlimit:10;" x1="1118.584" y1="654.933" x2="1126.237" y2="654.933"/>
				
					<line style="fill:none;stroke:#FFFFFF;stroke-width:2;stroke-miterlimit:10;" x1="1118.584" y1="662.135" x2="1126.237" y2="662.135"/>
			</g>
			<g>
				
					<line style="fill:none;stroke:#FFFFFF;stroke-width:2;stroke-miterlimit:10;" x1="1133.207" y1="647.731" x2="1157.112" y2="647.731"/>
				
					<line style="fill:none;stroke:#FFFFFF;stroke-width:2;stroke-miterlimit:10;" x1="1133.207" y1="654.933" x2="1157.112" y2="654.933"/>
				
					<line style="fill:none;stroke:#FFFFFF;stroke-width:2;stroke-miterlimit:10;" x1="1133.207" y1="662.135" x2="1157.112" y2="662.135"/>
			</g>
		</g>
		
			<text transform="matrix(1 0 0 1 527.561 690.7793)" style="fill:#FFFFFF; font-family:'OpenSans-Semibold'; font-size:25.3584px;">00:00:20:05</text>
	</g>
</g>
</svg>
